<svg width="208" height="31" viewBox="0 0 208 31" fill="none" xmlns="http://www.w3.org/2000/svg">
<path d="M18.6 30C17.1067 30 16.04 29.7067 15.4 29.12C14.76 28.5333 14.44 27.6933 14.44 26.6C14.44 26.0133 14.4933 24.9733 14.6 23.48C14.7067 21.9867 14.8267 20.3067 14.96 18.44H7.84L7.04 29.4C7.01333 29.6133 6.96 29.7733 6.88 29.88C6.8 29.96 6.64 30 6.4 30H4.2C2.70667 30 1.64 29.7067 1 29.12C0.36 28.5333 0.0400001 27.6933 0.0400001 26.6C0.0400001 26.0667 0.0800001 25.16 0.16 23.88C0.24 22.5733 0.346667 21.0933 0.48 19.44C0.613333 17.7867 0.746667 16.04 0.88 14.2C1.01333 12.36 1.14667 10.6267 1.28 9C1.41333 7.37333 1.52 5.94667 1.6 4.72C1.68 3.49333 1.72 2.65333 1.72 2.2C1.72 1.8 1.93333 1.6 2.36 1.6H4.56C6.18667 1.6 7.28 1.94667 7.84 2.64C8.4 3.33333 8.68 4.36 8.68 5.72C8.68 5.93333 8.64 6.69333 8.56 8C8.48 9.28 8.37333 10.8267 8.24 12.64H15.4C15.48 11.4667 15.56 10.32 15.64 9.2C15.7467 8.08 15.8267 7.05333 15.88 6.12C15.96 5.18667 16.0133 4.38667 16.04 3.72C16.0933 3.02667 16.12 2.52 16.12 2.2C16.12 1.8 16.3333 1.6 16.76 1.6H18.96C20.5867 1.6 21.68 1.94667 22.24 2.64C22.8 3.33333 23.08 4.36 23.08 5.72C23.08 5.85333 23.0533 6.28 23 7C22.9733 7.72 22.92 8.62667 22.84 9.72C22.76 10.8133 22.6667 12.04 22.56 13.4C22.48 14.7333 22.3867 16.1067 22.28 17.52C22.2 18.9333 22.1067 20.32 22 21.68C21.92 23.0133 21.84 24.2267 21.76 25.32C21.68 26.4133 21.6133 27.3333 21.56 28.08C21.5067 28.8 21.4667 29.24 21.44 29.4C21.4133 29.6133 21.36 29.7733 21.28 29.88C21.2 29.96 21.04 30 20.8 30H18.6ZM35.6378 30.4C34.4645 30.4 33.2911 30.2533 32.1178 29.96C30.9711 29.6667 29.9311 29.16 28.9978 28.44C28.0911 27.72 27.3445 26.76 26.7578 25.56C26.1711 24.36 25.8778 22.8533 25.8778 21.04C25.8778 20.3733 25.9311 19.5733 26.0378 18.64C26.1445 17.7067 26.3445 16.7467 26.6378 15.76C26.9578 14.7733 27.3845 13.8 27.9178 12.84C28.4778 11.8533 29.1978 10.9733 30.0778 10.2C30.9578 9.42666 32.0245 8.8 33.2778 8.32C34.5311 7.84 36.0245 7.6 37.7578 7.6C39.1445 7.6 40.3178 7.76 41.2778 8.08C42.2378 8.4 43.0111 8.84 43.5978 9.4C44.1845 9.93333 44.6111 10.56 44.8778 11.28C45.1445 12 45.2778 12.7733 45.2778 13.6C45.2778 14.8267 45.0245 15.8667 44.5178 16.72C44.0378 17.5733 43.3978 18.2933 42.5978 18.88C41.8245 19.44 40.9578 19.88 39.9978 20.2C39.0378 20.52 38.0911 20.7733 37.1578 20.96C36.2245 21.12 35.3578 21.2267 34.5578 21.28C33.7845 21.3067 33.1845 21.32 32.7578 21.32C32.7578 21.8267 32.8245 22.3333 32.9578 22.84C33.1178 23.32 33.3445 23.7467 33.6378 24.12C33.9311 24.4933 34.3178 24.8 34.7978 25.04C35.2778 25.28 35.8645 25.4 36.5578 25.4C37.2511 25.4 37.7845 25.2933 38.1578 25.08C38.5578 24.84 38.8778 24.5867 39.1178 24.32C39.3578 24.0267 39.5578 23.7733 39.7178 23.56C39.9045 23.32 40.1445 23.2 40.4378 23.2C40.5711 23.2 40.7978 23.24 41.1178 23.32C41.4645 23.3733 41.8111 23.5067 42.1578 23.72C42.5045 23.9333 42.8111 24.2267 43.0778 24.6C43.3445 24.9733 43.4778 25.4533 43.4778 26.04C43.4778 26.8133 43.2378 27.48 42.7578 28.04C42.2778 28.6 41.6511 29.0533 40.8778 29.4C40.1311 29.7467 39.2911 30 38.3578 30.16C37.4245 30.32 36.5178 30.4 35.6378 30.4ZM36.3978 12.92C35.8111 12.92 35.3045 13.0933 34.8778 13.44C34.4778 13.76 34.1311 14.1733 33.8378 14.68C33.5711 15.1867 33.3578 15.7467 33.1978 16.36C33.0645 16.9733 32.9578 17.56 32.8778 18.12C34.5311 18.0933 35.8645 17.8133 36.8778 17.28C37.9178 16.7467 38.4378 15.9867 38.4378 15C38.4378 14.4667 38.2645 13.9867 37.9178 13.56C37.5978 13.1333 37.0911 12.92 36.3978 12.92ZM60.6069 17.56C60.4469 17.56 60.2602 17.56 60.0469 17.56C59.8602 17.5333 59.6735 17.5067 59.4869 17.48C59.3002 17.4267 59.1402 17.3733 59.0069 17.32C58.8735 17.24 58.8069 17.1467 58.8069 17.04C58.8069 16.6933 58.8202 16.3733 58.8469 16.08C58.8735 15.7867 58.8869 15.48 58.8869 15.16C58.8869 14.5733 58.8069 14.0933 58.6469 13.72C58.4869 13.3467 58.1669 13.16 57.6869 13.16C56.9402 13.16 56.3135 13.6533 55.8069 14.64C55.3269 15.6 55.0202 17.0533 54.8869 19C54.8335 19.8533 54.7535 20.8267 54.6469 21.92C54.5669 22.9867 54.4869 24.0267 54.4069 25.04C54.3269 26.0267 54.2602 26.9067 54.2069 27.68C54.1535 28.4533 54.1269 28.96 54.1269 29.2C54.1269 29.4667 54.0335 29.6667 53.8469 29.8C53.6602 29.9333 53.4602 30 53.2469 30H51.8069C50.9802 30 50.3002 29.92 49.7669 29.76C49.2602 29.5733 48.8469 29.32 48.5269 29C48.2335 28.68 48.0202 28.2933 47.8869 27.84C47.7802 27.36 47.7269 26.8133 47.7269 26.2C47.7269 25.8 47.7402 25.24 47.7669 24.52C47.8202 23.7733 47.9002 22.76 48.0069 21.48C48.1135 20.1733 48.2335 18.5333 48.3669 16.56C48.5269 14.56 48.7135 12.0933 48.9269 9.16C48.9802 8.38667 49.2602 8 49.7669 8H51.3269C52.0735 8 52.7002 8.08 53.2069 8.24C53.7135 8.4 54.1269 8.62667 54.4469 8.92C54.7669 9.18667 54.9935 9.50667 55.1269 9.88C55.2869 10.2533 55.3935 10.64 55.4469 11.04C55.7669 10.4267 56.1402 9.90667 56.5669 9.48C57.0202 9.02667 57.4869 8.66667 57.9669 8.4C58.4469 8.10667 58.9402 7.90667 59.4469 7.8C59.9535 7.66667 60.4202 7.6 60.8469 7.6C61.3535 7.6 61.8602 7.69333 62.3669 7.88C62.9002 8.06667 63.3802 8.34667 63.8069 8.72C64.2335 9.09333 64.5669 9.57333 64.8069 10.16C65.0735 10.7467 65.2069 11.44 65.2069 12.24C65.2069 12.96 65.1002 13.64 64.8869 14.28C64.6735 14.92 64.3669 15.4933 63.9669 16C63.5669 16.48 63.0735 16.8667 62.4869 17.16C61.9269 17.4267 61.3002 17.56 60.6069 17.56ZM75.9875 30.4C73.9342 30.4 72.3075 30.1067 71.1075 29.52C69.9075 28.9067 69.0008 28.1467 68.3875 27.24C67.7742 26.3333 67.3875 25.36 67.2275 24.32C67.0675 23.2533 66.9875 22.28 66.9875 21.4C66.9875 21.0533 67.0142 20.3733 67.0675 19.36C67.1475 18.3467 67.2408 17.1733 67.3475 15.84C67.4542 14.5067 67.5608 13.0933 67.6675 11.6C67.7742 10.08 67.8808 8.65333 67.9875 7.32C68.0942 5.96 68.1742 4.76 68.2275 3.72C68.3075 2.68 68.3475 1.96 68.3475 1.56C68.3475 0.973332 68.3875 0.639998 68.4675 0.559998C68.5475 0.453332 68.7875 0.4 69.1875 0.4H70.7475C71.5475 0.4 72.2142 0.493333 72.7475 0.679998C73.2808 0.866666 73.7075 1.12 74.0275 1.44C74.3475 1.76 74.5742 2.13333 74.7075 2.56C74.8408 2.96 74.9075 3.4 74.9075 3.88C74.9075 4.33333 74.8542 5.21333 74.7475 6.52C74.6675 7.82667 74.5608 9.36 74.4275 11.12C75.1208 9.92 75.9075 9.04 76.7875 8.48C77.6675 7.89333 78.8275 7.6 80.2675 7.6C82.6942 7.6 84.5475 8.4 85.8275 10C87.1342 11.6 87.7875 13.9867 87.7875 17.16C87.7875 17.9867 87.7208 18.8933 87.5875 19.88C87.4808 20.8667 87.2675 21.8533 86.9475 22.84C86.6542 23.8 86.2275 24.7467 85.6675 25.68C85.1342 26.5867 84.4275 27.3867 83.5475 28.08C82.6675 28.7733 81.6008 29.3333 80.3475 29.76C79.1208 30.1867 77.6675 30.4 75.9875 30.4ZM77.7875 12.92C76.8275 12.92 76.0675 13.1733 75.5075 13.68C74.9742 14.1867 74.5608 14.8 74.2675 15.52C73.9742 16.24 73.7875 17.0133 73.7075 17.84C73.6275 18.64 73.5875 19.3467 73.5875 19.96C73.5875 21.8 73.8408 23.12 74.3475 23.92C74.8542 24.6933 75.6142 25.08 76.6275 25.08C77.5875 25.08 78.3342 24.7867 78.8675 24.2C79.4275 23.5867 79.8408 22.8667 80.1075 22.04C80.4008 21.2133 80.5875 20.3733 80.6675 19.52C80.7475 18.6667 80.7875 18 80.7875 17.52C80.7875 16.0267 80.5608 14.8933 80.1075 14.12C79.6542 13.32 78.8808 12.92 77.7875 12.92ZM89.6119 25.08C89.6119 22.68 90.6919 20.8 92.8519 19.44C95.0119 18.08 98.1985 17.3467 102.412 17.24C102.439 16.9467 102.452 16.7067 102.452 16.52C102.479 16.3067 102.492 16.0533 102.492 15.76C102.492 14.9067 102.332 14.2267 102.012 13.72C101.692 13.2133 101.025 12.96 100.012 12.96C99.4519 12.96 98.9985 13.04 98.6519 13.2C98.3052 13.36 98.0252 13.5867 97.8119 13.88C97.5985 14.1467 97.4252 14.48 97.2919 14.88C97.1585 15.28 97.0385 15.72 96.9319 16.2C96.8785 16.44 96.7585 16.6 96.5719 16.68C96.3852 16.7333 96.0919 16.76 95.6919 16.76C92.9719 16.76 91.6119 15.7333 91.6119 13.68C91.6119 12.8533 91.7985 12.0667 92.1719 11.32C92.5719 10.5733 93.1452 9.93333 93.8919 9.4C94.6652 8.84 95.6252 8.4 96.7719 8.08C97.9185 7.76 99.2519 7.6 100.772 7.6C103.732 7.6 105.879 8.21333 107.212 9.44C108.545 10.6667 109.212 12.4 109.212 14.64C109.212 14.9333 109.172 15.4667 109.092 16.24C109.039 16.9867 108.959 17.7867 108.852 18.64C108.772 19.4667 108.692 20.2533 108.612 21C108.559 21.7467 108.532 22.2667 108.532 22.56C108.532 23.2267 108.652 23.7067 108.892 24C109.132 24.2667 109.399 24.4533 109.692 24.56C110.012 24.6667 110.292 24.7467 110.532 24.8C110.772 24.8533 110.892 24.9867 110.892 25.2C110.892 25.7867 110.812 26.3867 110.652 27C110.492 27.6133 110.225 28.1733 109.852 28.68C109.505 29.1867 109.012 29.6 108.372 29.92C107.759 30.24 106.999 30.4 106.092 30.4C104.812 30.4 103.852 30.0933 103.212 29.48C102.572 28.8667 102.145 28.0133 101.932 26.92C101.292 27.8533 100.452 28.6667 99.4119 29.36C98.3985 30.0533 97.0652 30.4 95.4119 30.4C94.6119 30.4 93.8519 30.3067 93.1319 30.12C92.4385 29.9333 91.8252 29.6267 91.2919 29.2C90.7852 28.7733 90.3719 28.2267 90.0519 27.56C89.7585 26.8667 89.6119 26.04 89.6119 25.08ZM102.052 20.52C101.359 20.52 100.679 20.5733 100.012 20.68C99.3452 20.7867 98.7452 20.96 98.2119 21.2C97.7052 21.4133 97.2919 21.7067 96.9719 22.08C96.6519 22.4533 96.4919 22.9067 96.4919 23.44C96.4919 24.0533 96.6785 24.48 97.0519 24.72C97.4519 24.96 97.8785 25.08 98.3319 25.08C98.7585 25.08 99.1852 24.9867 99.6119 24.8C100.039 24.6133 100.412 24.3333 100.732 23.96C101.079 23.56 101.372 23.08 101.612 22.52C101.852 21.96 101.999 21.2933 102.052 20.52ZM117.911 30C116.391 30 115.311 29.7067 114.671 29.12C114.058 28.5067 113.751 27.6133 113.751 26.44C113.751 26.0933 113.764 25.5467 113.791 24.8C113.844 24.0267 113.911 23.12 113.991 22.08C114.071 21.04 114.151 19.9067 114.231 18.68C114.338 17.4533 114.444 16.2 114.551 14.92C114.684 13.3467 114.791 12 114.871 10.88C114.978 9.73333 115.058 8.76 115.111 7.96C115.164 7.13333 115.204 6.45333 115.231 5.92C115.284 5.36 115.311 4.88 115.311 4.48C115.338 4.05333 115.351 3.66666 115.351 3.32C115.378 2.97333 115.391 2.6 115.391 2.2C115.391 1.98667 115.458 1.84 115.591 1.76C115.724 1.65333 115.858 1.6 115.991 1.6C116.684 1.6 117.444 1.58667 118.271 1.56C119.098 1.50666 119.924 1.45333 120.751 1.4C121.578 1.34667 122.378 1.30667 123.151 1.28C123.924 1.22667 124.604 1.2 125.191 1.2C126.898 1.2 128.364 1.41333 129.591 1.84C130.818 2.24 131.804 2.84 132.551 3.64C133.324 4.41333 133.884 5.36 134.231 6.48C134.604 7.6 134.791 8.88 134.791 10.32C134.791 11.8933 134.578 13.4133 134.151 14.88C133.751 16.32 133.111 17.6 132.231 18.72C131.351 19.84 130.218 20.7333 128.831 21.4C127.444 22.0667 125.791 22.4 123.871 22.4C122.724 22.4 121.751 22.28 120.951 22.04L120.391 29.4C120.364 29.6133 120.311 29.7733 120.231 29.88C120.151 29.96 119.991 30 119.751 30H117.911ZM124.391 7.2C124.044 7.2 123.658 7.22667 123.231 7.28C122.804 7.30667 122.351 7.34667 121.871 7.4C121.818 8.52 121.751 9.88 121.671 11.48C121.591 13.08 121.484 14.76 121.351 16.52C121.751 16.6267 122.138 16.7067 122.511 16.76C122.911 16.7867 123.271 16.8 123.591 16.8C124.524 16.8 125.271 16.5867 125.831 16.16C126.418 15.7067 126.871 15.16 127.191 14.52C127.511 13.88 127.724 13.2133 127.831 12.52C127.938 11.8267 127.991 11.2267 127.991 10.72C127.991 9.57333 127.724 8.70667 127.191 8.12C126.684 7.50666 125.751 7.2 124.391 7.2ZM141.507 30.36C139.853 30.36 138.667 29.92 137.947 29.04C137.227 28.16 136.867 26.7067 136.867 24.68C136.867 24.36 136.88 23.96 136.907 23.48C136.96 23 137.013 22.3867 137.067 21.64C137.147 20.8667 137.24 19.92 137.347 18.8C137.453 17.68 137.56 16.32 137.667 14.72C137.8 13.12 137.933 11.24 138.067 9.08C138.227 6.92 138.387 4.41333 138.547 1.56C138.573 0.973332 138.64 0.626665 138.747 0.519998C138.827 0.439999 139.04 0.4 139.387 0.4H140.947C141.747 0.4 142.413 0.493333 142.947 0.679998C143.48 0.866666 143.907 1.12 144.227 1.44C144.547 1.76 144.773 2.13333 144.907 2.56C145.04 2.96 145.107 3.38667 145.107 3.84C145.107 4.37333 145.067 5.14667 144.987 6.16C144.933 7.14667 144.853 8.26667 144.747 9.52C144.64 10.7733 144.533 12.08 144.427 13.44C144.32 14.8 144.213 16.1067 144.107 17.36C144 18.5867 143.907 19.6933 143.827 20.68C143.773 21.6667 143.747 22.4133 143.747 22.92C143.747 23.6133 143.867 24.1067 144.107 24.4C144.373 24.6933 144.653 24.9067 144.947 25.04C145.24 25.1467 145.507 25.2267 145.747 25.28C146.013 25.3067 146.147 25.3867 146.147 25.52C146.147 26.1067 146.08 26.6933 145.947 27.28C145.813 27.84 145.573 28.36 145.227 28.84C144.88 29.2933 144.4 29.6667 143.787 29.96C143.2 30.2267 142.44 30.36 141.507 30.36ZM156.577 11.4C156.577 11.96 156.524 12.7467 156.417 13.76C156.337 14.7733 156.244 15.8267 156.137 16.92C156.057 18.0133 155.964 19.04 155.857 20C155.777 20.96 155.737 21.6533 155.737 22.08C155.737 23.0133 155.964 23.7467 156.417 24.28C156.897 24.7867 157.55 25.04 158.377 25.04C159.097 25.04 159.697 24.76 160.177 24.2C160.684 23.6133 161.084 22.8667 161.377 21.96C161.697 21.0267 161.95 19.9733 162.137 18.8C162.324 17.6267 162.457 16.44 162.537 15.24C162.644 14.04 162.724 12.88 162.777 11.76C162.857 10.6133 162.937 9.62667 163.017 8.8C163.044 8.58666 163.124 8.4 163.257 8.24C163.39 8.08 163.604 8 163.897 8H165.337C166.164 8 166.83 8.09333 167.337 8.28C167.87 8.44 168.284 8.68 168.577 9C168.897 9.32 169.11 9.72 169.217 10.2C169.35 10.6533 169.417 11.1867 169.417 11.8C169.417 12.2 169.39 12.7733 169.337 13.52C169.31 14.24 169.244 15.2533 169.137 16.56C169.03 17.84 168.897 19.48 168.737 21.48C168.604 23.4533 168.43 25.9067 168.217 28.84C168.164 29.4 168.097 29.7333 168.017 29.84C167.964 29.9467 167.75 30 167.377 30H165.817C165.017 30 164.35 29.9067 163.817 29.72C163.31 29.5333 162.897 29.2933 162.577 29C162.257 28.7067 162.03 28.36 161.897 27.96C161.764 27.56 161.684 27.1467 161.657 26.72C161.257 27.4133 160.804 28 160.297 28.48C159.817 28.96 159.31 29.3467 158.777 29.64C158.244 29.9067 157.697 30.0933 157.137 30.2C156.577 30.3333 156.03 30.4 155.497 30.4C154.484 30.4 153.577 30.24 152.777 29.92C151.977 29.5733 151.297 29.12 150.737 28.56C150.204 28 149.79 27.3333 149.497 26.56C149.204 25.7867 149.057 24.96 149.057 24.08C149.057 23.7333 149.07 23.1733 149.097 22.4C149.15 21.6 149.204 20.7067 149.257 19.72C149.337 18.7333 149.417 17.6933 149.497 16.6C149.577 15.48 149.644 14.4267 149.697 13.44C149.777 12.4533 149.844 11.5867 149.897 10.84C149.977 10.0933 150.03 9.56 150.057 9.24C150.11 8.76 150.217 8.44 150.377 8.28C150.537 8.09333 150.804 8 151.177 8H152.457C153.284 8 153.964 8.08 154.497 8.24C155.03 8.4 155.444 8.62667 155.737 8.92C156.057 9.21333 156.27 9.57333 156.377 10C156.51 10.4 156.577 10.8667 156.577 11.4ZM182.241 7.6C184.508 7.6 186.175 8.05333 187.241 8.96C188.308 9.84 188.841 10.9733 188.841 12.36C188.841 13.5333 188.468 14.4267 187.721 15.04C187.001 15.6533 185.948 15.96 184.561 15.96C184.188 15.96 183.935 15.92 183.801 15.84C183.668 15.76 183.601 15.6133 183.601 15.4C183.601 15.16 183.575 14.8933 183.521 14.6C183.495 14.28 183.401 13.9867 183.241 13.72C183.108 13.4267 182.881 13.1867 182.561 13C182.268 12.8133 181.841 12.72 181.281 12.72C180.535 12.72 179.935 12.9067 179.481 13.28C179.028 13.6267 178.801 14.0667 178.801 14.6C178.801 15.16 179.028 15.6133 179.481 15.96C179.961 16.28 180.548 16.5867 181.241 16.88C181.961 17.1733 182.735 17.48 183.561 17.8C184.388 18.0933 185.148 18.4933 185.841 19C186.561 19.5067 187.148 20.1467 187.601 20.92C188.081 21.6667 188.321 22.64 188.321 23.84C188.321 25.76 187.641 27.3333 186.281 28.56C184.921 29.7867 182.881 30.4 180.161 30.4C179.415 30.4 178.548 30.3333 177.561 30.2C176.601 30.0933 175.681 29.92 174.801 29.68C173.921 29.4133 173.175 29.0667 172.561 28.64C171.975 28.2133 171.681 27.68 171.681 27.04C171.681 26.8 171.721 26.5067 171.801 26.16C171.908 25.8133 172.055 25.48 172.241 25.16C172.455 24.84 172.695 24.5733 172.961 24.36C173.255 24.12 173.601 24 174.001 24C174.321 24 174.615 24.08 174.881 24.24C175.148 24.4 175.455 24.5733 175.801 24.76C176.175 24.92 176.628 25.08 177.161 25.24C177.695 25.4 178.401 25.48 179.281 25.48C179.948 25.48 180.535 25.4 181.041 25.24C181.575 25.08 181.841 24.72 181.841 24.16C181.841 23.6533 181.628 23.2533 181.201 22.96C180.775 22.64 180.228 22.3467 179.561 22.08C178.921 21.8133 178.215 21.5333 177.441 21.24C176.695 20.92 175.988 20.5067 175.321 20C174.681 19.4933 174.148 18.8533 173.721 18.08C173.295 17.28 173.081 16.2533 173.081 15C173.081 13.64 173.348 12.4933 173.881 11.56C174.441 10.6 175.148 9.82667 176.001 9.24C176.881 8.65333 177.868 8.24 178.961 8C180.055 7.73333 181.148 7.6 182.241 7.6ZM201.03 7.6C203.297 7.6 204.964 8.05333 206.03 8.96C207.097 9.84 207.63 10.9733 207.63 12.36C207.63 13.5333 207.257 14.4267 206.51 15.04C205.79 15.6533 204.737 15.96 203.35 15.96C202.977 15.96 202.724 15.92 202.59 15.84C202.457 15.76 202.39 15.6133 202.39 15.4C202.39 15.16 202.364 14.8933 202.31 14.6C202.284 14.28 202.19 13.9867 202.03 13.72C201.897 13.4267 201.67 13.1867 201.35 13C201.057 12.8133 200.63 12.72 200.07 12.72C199.324 12.72 198.724 12.9067 198.27 13.28C197.817 13.6267 197.59 14.0667 197.59 14.6C197.59 15.16 197.817 15.6133 198.27 15.96C198.75 16.28 199.337 16.5867 200.03 16.88C200.75 17.1733 201.524 17.48 202.35 17.8C203.177 18.0933 203.937 18.4933 204.63 19C205.35 19.5067 205.937 20.1467 206.39 20.92C206.87 21.6667 207.11 22.64 207.11 23.84C207.11 25.76 206.43 27.3333 205.07 28.56C203.71 29.7867 201.67 30.4 198.95 30.4C198.204 30.4 197.337 30.3333 196.35 30.2C195.39 30.0933 194.47 29.92 193.59 29.68C192.71 29.4133 191.964 29.0667 191.35 28.64C190.764 28.2133 190.47 27.68 190.47 27.04C190.47 26.8 190.51 26.5067 190.59 26.16C190.697 25.8133 190.844 25.48 191.03 25.16C191.244 24.84 191.484 24.5733 191.75 24.36C192.044 24.12 192.39 24 192.79 24C193.11 24 193.404 24.08 193.67 24.24C193.937 24.4 194.244 24.5733 194.59 24.76C194.964 24.92 195.417 25.08 195.95 25.24C196.484 25.4 197.19 25.48 198.07 25.48C198.737 25.48 199.324 25.4 199.83 25.24C200.364 25.08 200.63 24.72 200.63 24.16C200.63 23.6533 200.417 23.2533 199.99 22.96C199.564 22.64 199.017 22.3467 198.35 22.08C197.71 21.8133 197.004 21.5333 196.23 21.24C195.484 20.92 194.777 20.5067 194.11 20C193.47 19.4933 192.937 18.8533 192.51 18.08C192.084 17.28 191.87 16.2533 191.87 15C191.87 13.64 192.137 12.4933 192.67 11.56C193.23 10.6 193.937 9.82667 194.79 9.24C195.67 8.65333 196.657 8.24 197.75 8C198.844 7.73333 199.937 7.6 201.03 7.6Z" fill="#266431"/>
</svg>
