<svg width="34" height="30" viewBox="0 0 34 30" fill="none" xmlns="http://www.w3.org/2000/svg">
<path d="M10.2 15.0979C13.4884 15.0979 16.15 11.8273 16.15 7.78637C16.15 3.74542 13.4884 0.474792 10.2 0.474792C6.91156 0.474792 4.25 3.74542 4.25 7.78637C4.25 11.8273 6.91156 15.0979 10.2 15.0979ZM14.28 17.187H13.8391C12.7341 17.8398 11.5069 18.2315 10.2 18.2315C8.89313 18.2315 7.67125 17.8398 6.56094 17.187H6.12C2.74125 17.187 0 20.5555 0 24.7074V26.5876C0 28.3175 1.14219 29.7211 2.55 29.7211H17.85C19.2578 29.7211 20.4 28.3175 20.4 26.5876V24.7074C20.4 20.5555 17.6588 17.187 14.28 17.187ZM25.5 15.0979C28.3156 15.0979 30.6 12.2908 30.6 8.83088C30.6 5.37093 28.3156 2.56381 25.5 2.56381C22.6844 2.56381 20.4 5.37093 20.4 8.83088C20.4 12.2908 22.6844 15.0979 25.5 15.0979ZM28.05 17.187H27.8481C27.1097 17.5003 26.3288 17.7092 25.5 17.7092C24.6713 17.7092 23.8903 17.5003 23.1519 17.187H22.95C21.8663 17.187 20.8675 17.5721 19.9909 18.1923C21.2872 19.9092 22.1 22.1876 22.1 24.7074V27.2143C22.1 27.3579 22.0734 27.495 22.0681 27.6321H31.45C32.8578 27.6321 34 26.2285 34 24.4985C34 20.4576 31.3384 17.187 28.05 17.187Z" fill="white"/>
</svg>
