<svg width="43" height="39" viewBox="0 0 43 39" fill="none" xmlns="http://www.w3.org/2000/svg">
<path d="M8.95833 8.125H39.4167L35.8333 22.75H12.5417M12.5417 22.75L7.16667 3.25H0M12.5417 22.75L14.3333 29.25H37.625M34.0417 37.375C33.5665 37.375 33.1108 37.2038 32.7748 36.899C32.4388 36.5943 32.25 36.181 32.25 35.75C32.25 35.319 32.4388 34.9057 32.7748 34.601C33.1108 34.2962 33.5665 34.125 34.0417 34.125C34.5168 34.125 34.9726 34.2962 35.3086 34.601C35.6446 34.9057 35.8333 35.319 35.8333 35.75C35.8333 36.181 35.6446 36.5943 35.3086 36.899C34.9726 37.2038 34.5168 37.375 34.0417 37.375ZM16.125 37.375C15.6498 37.375 15.1941 37.2038 14.8581 36.899C14.5221 36.5943 14.3333 36.181 14.3333 35.75C14.3333 35.319 14.5221 34.9057 14.8581 34.601C15.1941 34.2962 15.6498 34.125 16.125 34.125C16.6002 34.125 17.0559 34.2962 17.3919 34.601C17.7279 34.9057 17.9167 35.319 17.9167 35.75C17.9167 36.181 17.7279 36.5943 17.3919 36.899C17.0559 37.2038 16.6002 37.375 16.125 37.375Z" stroke="white" stroke-width="2"/>
</svg>
