<svg width="54" height="49" viewBox="0 0 54 49" fill="none" xmlns="http://www.w3.org/2000/svg">
<g clip-path="url(#clip0_41_1356)">
<path fill-rule="evenodd" clip-rule="evenodd" d="M27 4.08331C14.5732 4.08331 4.5 13.2239 4.5 24.5C4.5 35.7761 14.5732 44.9166 27 44.9166C39.4267 44.9166 49.5 35.7761 49.5 24.5C49.5 13.2239 39.4267 4.08331 27 4.08331ZM19.125 19.3958C19.125 18.4574 19.3287 17.5282 19.7244 16.6612C20.1202 15.7942 20.7003 15.0065 21.4315 14.3429C22.1628 13.6794 23.0309 13.153 23.9864 12.7939C24.9418 12.4348 25.9658 12.25 27 12.25C28.0342 12.25 29.0582 12.4348 30.0136 12.7939C30.9691 13.153 31.8372 13.6794 32.5685 14.3429C33.2997 15.0065 33.8798 15.7942 34.2755 16.6612C34.6713 17.5282 34.875 18.4574 34.875 19.3958C34.875 21.291 34.0453 23.1086 32.5685 24.4487C31.0916 25.7888 29.0886 26.5416 27 26.5416C24.9114 26.5416 22.9084 25.7888 21.4315 24.4487C19.9547 23.1086 19.125 21.291 19.125 19.3958ZM41.0805 34.6756C39.3962 36.5981 37.2551 38.1505 34.8169 39.2167C32.3787 40.283 29.7066 40.8356 27 40.8333C24.2934 40.8356 21.6213 40.283 19.1831 39.2167C16.7449 38.1505 14.6038 36.5981 12.9195 34.6756C16.5667 32.3012 21.5437 30.625 27 30.625C32.4562 30.625 37.4332 32.3012 41.0805 34.6756Z" fill="white"/>
</g>
<defs>
<clipPath id="clip0_41_1356">
<rect width="54" height="49" fill="white"/>
</clipPath>
</defs>
</svg>
